<svg width="176" height="48" viewBox="0 0 176 48" fill="none" xmlns="http://www.w3.org/2000/svg">
<path d="M1 15.936C1 12.674 1.14744 10.1105 1.52328 8.09272C1.89859 6.07772 2.48876 4.6808 3.3199 3.6891C4.95904 1.73331 7.84323 1 13.3559 1H162.644C168.157 1 171.041 1.73331 172.68 3.6891C173.511 4.6808 174.101 6.07772 174.477 8.09272C174.853 10.1105 175 12.674 175 15.936V32.064C175 35.326 174.853 37.8895 174.477 39.9073C174.101 41.9223 173.511 43.3192 172.68 44.3109C171.041 46.2667 168.157 47 162.644 47H13.3559C7.84323 47 4.95904 46.2667 3.3199 44.3109C2.48876 43.3192 1.89859 41.9223 1.52328 39.9073C1.14744 37.8895 1 35.326 1 32.064V15.936Z" fill="#FF7A00" fill-opacity="0.25" stroke="#FF7A00" stroke-width="2"/>
</svg>
