<svg width="20" height="20" viewBox="0 0 20 20" fill="none" xmlns="http://www.w3.org/2000/svg">
<path fill-rule="evenodd" clip-rule="evenodd" d="M12 10C12 8.897 11.103 8 10 8C8.897 8 8 8.897 8 10C8 11.103 8.897 12 10 12C11.103 12 12 11.103 12 10ZM14 10C14 12.206 12.206 14 10 14C7.794 14 6 12.206 6 10C6 7.794 7.794 6 10 6C12.206 6 14 7.794 14 10ZM4.27 14.143L2.831 15.532C2.434 15.916 2.423 16.55 2.807 16.946C3.003 17.149 3.264 17.252 3.526 17.252C3.776 17.252 4.026 17.159 4.221 16.972L5.66 15.582C6.057 15.198 6.068 14.564 5.684 14.168C5.301 13.771 4.668 13.76 4.27 14.143ZM15.73 14.143C15.333 13.76 14.7 13.771 14.316 14.168C13.932 14.564 13.943 15.198 14.34 15.582L15.779 16.972C15.974 17.159 16.224 17.252 16.474 17.252C16.736 17.252 16.997 17.149 17.193 16.946C17.577 16.55 17.566 15.916 17.169 15.532L15.73 14.143ZM10 16C9.448 16 9 16.447 9 17V19C9 19.553 9.448 20 10 20C10.552 20 11 19.553 11 19V17C11 16.447 10.552 16 10 16ZM15.035 6.138C15.285 6.138 15.536 6.045 15.73 5.857L17.169 4.468C17.566 4.084 17.577 3.45 17.193 3.054C16.81 2.657 16.178 2.646 15.779 3.028L14.34 4.418C13.943 4.802 13.932 5.436 14.316 5.832C14.512 6.035 14.773 6.138 15.035 6.138ZM4.221 3.028C3.824 2.646 3.191 2.657 2.807 3.054C2.423 3.45 2.434 4.084 2.831 4.468L4.27 5.857C4.464 6.045 4.715 6.138 4.965 6.138C5.227 6.138 5.488 6.035 5.684 5.832C6.068 5.436 6.057 4.802 5.66 4.418L4.221 3.028ZM4 10C4 9.447 3.552 9 3 9H1C0.448 9 0 9.447 0 10C0 10.553 0.448 11 1 11H3C3.552 11 4 10.553 4 10ZM19 9H17C16.448 9 16 9.447 16 10C16 10.553 16.448 11 17 11H19C19.552 11 20 10.553 20 10C20 9.447 19.552 9 19 9ZM9 3V1C9 0.447 9.448 0 10 0C10.552 0 11 0.447 11 1V3C11 3.553 10.552 4 10 4C9.448 4 9 3.553 9 3Z" fill="white"/>
</svg>
