<svg width="48" height="48" viewBox="0 0 48 48" fill="none" xmlns="http://www.w3.org/2000/svg">
<path d="M47 32.064C47 35.322 46.8241 37.8718 46.3793 39.8734C45.937 41.8637 45.2421 43.2501 44.2461 44.2461C43.2501 45.2421 41.8637 45.937 39.8734 46.3793C37.8718 46.8241 35.322 47 32.064 47L15.936 47C12.678 47 10.1282 46.8241 8.12656 46.3793C6.1363 45.937 4.74987 45.2421 3.75387 44.2461C2.75787 43.2501 2.06304 41.8637 1.62072 39.8734C1.17588 37.8718 1 35.322 1 32.064L1 15.936C1 12.678 1.17588 10.1282 1.62072 8.12656C2.06304 6.13629 2.75788 4.74987 3.75388 3.75387C4.74987 2.75787 6.1363 2.06303 8.12656 1.62072C10.1282 1.17587 12.678 0.999997 15.936 0.999997L32.064 0.999999C35.322 0.999999 37.8718 1.17588 39.8734 1.62072C41.8637 2.06304 43.2501 2.75787 44.2461 3.75387C45.2421 4.74987 45.937 6.1363 46.3793 8.12656C46.8241 10.1282 47 12.678 47 15.936L47 32.064Z" fill="#FF7A00" fill-opacity="0.3" stroke="#FF7A00" stroke-width="2"/>
<path fill-rule="evenodd" clip-rule="evenodd" d="M17 25.0001L28.865 25.0001L25.232 29.3601C24.878 29.7841 24.936 30.4151 25.36 30.7681C25.785 31.1221 26.415 31.0641 26.768 30.6401L31.768 24.6401C31.807 24.5931 31.827 24.5381 31.856 24.4861C31.88 24.4441 31.909 24.4081 31.927 24.3621C31.972 24.2471 31.999 24.1261 31.999 24.0041C31.999 24.0031 32 24.0011 32 24.0001C32 23.9991 31.999 23.9971 31.999 23.9961C31.999 23.8741 31.972 23.7531 31.927 23.6381C31.909 23.5921 31.88 23.5561 31.856 23.5141C31.827 23.4621 31.807 23.4071 31.768 23.3601L26.768 17.3601C26.57 17.1231 26.286 17.0001 26 17.0001C25.774 17.0001 25.547 17.0761 25.36 17.2321C24.936 17.5851 24.878 18.2161 25.232 18.6401L28.865 23.0001L17 23.0001C16.448 23.0001 16 23.4481 16 24.0001C16 24.5521 16.448 25.0001 17 25.0001Z" fill="white"/>
</svg>
