<svg width="176" height="48" viewBox="0 0 176 48" fill="none" xmlns="http://www.w3.org/2000/svg">
<path d="M1 15.936C1 12.678 1.17588 10.1282 1.62072 8.12656C2.06304 6.1363 2.75787 4.74987 3.75387 3.75387C4.74987 2.75787 6.1363 2.06304 8.12656 1.62072C10.1282 1.17588 12.678 1 15.936 1H160.064C163.322 1 165.872 1.17588 167.873 1.62072C169.864 2.06304 171.25 2.75787 172.246 3.75387C173.242 4.74987 173.937 6.1363 174.379 8.12656C174.824 10.1282 175 12.678 175 15.936V32.064C175 35.322 174.824 37.8718 174.379 39.8734C173.937 41.8637 173.242 43.2501 172.246 44.2461C171.25 45.2421 169.864 45.937 167.873 46.3793C165.872 46.8241 163.322 47 160.064 47H15.936C12.678 47 10.1282 46.8241 8.12656 46.3793C6.1363 45.937 4.74987 45.2421 3.75387 44.2461C2.75787 43.2501 2.06304 41.8637 1.62072 39.8734C1.17588 37.8718 1 35.322 1 32.064V15.936Z" fill="#1C1C1C" stroke="#BBBBBB" stroke-width="2"/>
</svg>
