<svg width="208" height="58" viewBox="0 0 208 58" fill="none" xmlns="http://www.w3.org/2000/svg">
<path d="M0 6.22119H18.7453V11.001H11.9602V28.5647H6.78513V11.001H0V6.22119Z" fill="white"/>
<path d="M30.6671 12.2909C30.6671 8.83887 33.427 5.84204 37.9505 5.84204C40.8638 5.84204 43.1638 6.79042 44.5822 8.30778L41.8221 12.1391C40.8253 11.2288 40.0588 10.6218 38.4104 10.6218C36.9922 10.6218 36.1489 11.2667 36.1489 12.2909C36.1489 16.0085 45.5789 15.0982 45.5789 22.3815C45.5789 26.2889 42.2055 28.9823 37.8355 28.9823C34.807 28.9823 31.2803 27.6924 30.1687 25.3025L33.1204 21.8125C34.4238 23.4438 36.3788 24.1645 37.9505 24.1645C39.292 24.1645 40.0971 23.4817 40.0971 22.4574C40.0971 19.0813 30.6671 19.4985 30.6671 12.2909Z" fill="white"/>
<path d="M77.7027 19.3465C77.7027 26.1747 73.2943 28.982 68.4643 28.982C62.6376 28.982 58.6125 25.6816 58.6125 19.1569V6.25903H63.7879V18.0947C63.7879 21.5847 64.861 24.2401 68.4643 24.2401C71.608 24.2401 72.5278 21.964 72.5278 18.3981V6.29696H77.7027V19.3465Z" fill="white"/>
<path d="M108.102 28.6028L97.3681 15.1739V28.6028H92.5388V6.22119H96.6787L107.412 19.6881V6.22119H112.242V28.6028H108.102Z" fill="white"/>
<path d="M134.016 6.22119H138.615L148.007 28.6028H142.487L140.609 23.8988H131.677L129.799 28.6028H124.586L134.016 6.22119ZM133.632 19.0811H138.693L136.162 12.746L133.632 19.0811Z" fill="white"/>
<path d="M160.39 6.22119H165.603L172.579 15.629L179.173 6.22119H184.042V28.6028H178.866V14.3393L172.579 23.0642H171.852L165.603 14.453V28.6028H160.39V6.22119Z" fill="white"/>
<path d="M199.26 11.3042H204.436V28.6025H199.26V11.3042Z" fill="white"/>
<path d="M202.212 0L199.26 6.22129H204.397L208 0H202.212Z" fill="#FF7A00"/>
<path d="M48.186 43.2439H49.3364V57.8486H48.186V43.2439ZM51.4059 50.1476L58.6895 57.8486H57.1946L50.0643 50.2235L57.0026 43.2439H58.4214L51.4059 50.1476Z" fill="white"/>
<path d="M66.3564 43.2439H67.5062V57.8486H66.3564V43.2439Z" fill="white"/>
<path d="M74.79 43.2439H86.8651V44.344H81.422V57.8486H80.2721V44.344H74.8288V43.2439H74.79Z" fill="white"/>
<path d="M103.694 56.4068C102.698 57.3934 100.857 58.0003 99.1325 58.0003C94.7622 58.0003 91.7339 55.0414 91.7339 50.5268C91.7339 46.3162 94.5318 43.054 98.9792 43.054C100.82 43.054 102.314 43.5091 103.464 44.4198L102.927 45.2919C101.854 44.4956 100.627 44.1541 99.0177 44.1541C95.4524 44.1541 92.9988 46.8476 92.9988 50.5651C92.9988 54.3964 95.5672 56.9761 99.2472 56.9761C100.82 56.9761 102.238 56.4451 103.272 55.6102L103.694 56.4068Z" fill="white"/>
<path d="M121.327 50.9444H112.128V57.8486H110.978V43.2439H112.128V49.8442H121.327V43.2439H122.477V57.8486H121.327V50.9444Z" fill="white"/>
<path d="M131.37 43.2439H139.536V44.344H132.521V49.92H138.923V51.0202H132.56V56.7862H139.767V57.8863H131.41V43.2439H131.37Z" fill="white"/>
<path d="M158.933 57.8486L148.852 45.2918V57.8486H147.739V43.2439H148.659L158.741 55.8382V43.2439H159.853V57.8486H158.933Z" fill="white"/>
</svg>
