<svg width="193" height="102" viewBox="0 0 193 102" fill="none" xmlns="http://www.w3.org/2000/svg">
<path d="M60.8615 50.2647C60.8615 55.9338 56.1915 60.5295 50.4308 60.5295C44.67 60.5295 40 55.9338 40 50.2647C40 44.5957 44.67 40 50.4308 40C56.1915 40 60.8615 44.5957 60.8615 50.2647Z" fill="#02B897"/>
<g filter="url(#filter0_d_2001_561)">
<path d="M60.8615 50.2647C60.8615 55.9338 56.1915 60.5295 50.4308 60.5295C44.67 60.5295 40 55.9338 40 50.2647C40 44.5957 44.67 40 50.4308 40C56.1915 40 60.8615 44.5957 60.8615 50.2647Z" fill="url(#paint0_linear_2001_561)"/>
</g>
<g filter="url(#filter1_d_2001_561)">
<path d="M77.029 43.2825V46.0277H73.0101V57.8407H70.0757V46.0277H66.0781V43.2825H77.029Z" fill="white"/>
</g>
<g filter="url(#filter2_d_2001_561)">
<path d="M79.2665 49.2306C79.5216 48.5651 79.9398 48.0659 80.521 47.7332C81.1164 47.4004 81.7756 47.2341 82.4985 47.2341V50.2288C81.6621 50.1318 80.9109 50.2982 80.2446 50.728C79.5925 51.1578 79.2665 51.8718 79.2665 52.8701V57.8407H76.5234V47.442H79.2665V49.2306Z" fill="white"/>
</g>
<g filter="url(#filter3_d_2001_561)">
<path d="M90.4567 47.4418H93.1997V57.8405H90.4567V56.6758C89.7904 57.6463 88.7343 58.1316 87.2884 58.1316C86.126 58.1316 85.162 57.7504 84.3965 56.9878C83.6452 56.2252 83.2695 55.1715 83.2695 53.8266V47.4418H86.0126V53.4938C86.0126 54.1871 86.204 54.7209 86.5867 55.0952C86.9694 55.4558 87.4797 55.636 88.1177 55.636C88.8264 55.636 89.3935 55.421 89.8187 54.9913C90.2441 54.5614 90.4567 53.9167 90.4567 53.0571V47.4418Z" fill="white"/>
</g>
<g filter="url(#filter4_d_2001_561)">
<path d="M97.3666 53.7435C97.7353 55.0468 98.7346 55.6984 100.365 55.6984C101.414 55.6984 102.208 55.3518 102.746 54.6586L104.958 55.9063C103.909 57.3899 102.364 58.1316 100.322 58.1316C98.5645 58.1316 97.154 57.6117 96.0909 56.5719C95.0276 55.532 94.4961 54.2218 94.4961 52.6412C94.4961 51.0745 95.0206 49.7712 96.0696 48.7313C97.1186 47.6775 98.4653 47.1507 100.11 47.1507C101.669 47.1507 102.952 47.6775 103.958 48.7313C104.979 49.7851 105.489 51.0883 105.489 52.6412C105.489 52.9878 105.454 53.3552 105.383 53.7435H97.3666ZM97.3241 51.6638H102.746C102.59 50.9566 102.264 50.4298 101.768 50.0832C101.286 49.7365 100.733 49.5632 100.11 49.5632C99.3726 49.5632 98.763 49.7503 98.281 50.1247C97.7991 50.4852 97.4801 50.9982 97.3241 51.6638Z" fill="white"/>
</g>
<g filter="url(#filter5_d_2001_561)">
<path d="M111.531 58.1318C110.057 58.1318 108.816 57.8129 107.81 57.1751C106.804 56.5235 106.095 55.6431 105.684 54.5339L108.193 53.0989C108.774 54.5824 109.915 55.3242 111.616 55.3242C112.438 55.3242 113.041 55.1786 113.424 54.8874C113.806 54.5963 113.998 54.2289 113.998 53.7852C113.998 53.2722 113.764 52.877 113.296 52.5997C112.828 52.3086 111.992 51.9966 110.787 51.6639C110.121 51.4697 109.554 51.2756 109.086 51.0815C108.632 50.8875 108.172 50.6309 107.704 50.312C107.25 49.9793 106.903 49.5633 106.662 49.0642C106.421 48.5651 106.3 47.9827 106.3 47.3172C106.3 46.0001 106.775 44.9532 107.725 44.1768C108.689 43.3865 109.844 42.9914 111.191 42.9914C112.396 42.9914 113.452 43.2826 114.359 43.8648C115.281 44.4333 115.997 45.2306 116.507 46.2565L114.04 47.65C113.445 46.4021 112.495 45.7782 111.191 45.7782C110.581 45.7782 110.099 45.9168 109.745 46.1942C109.405 46.4576 109.235 46.8042 109.235 47.2341C109.235 47.6915 109.426 48.0659 109.809 48.3571C110.206 48.6343 110.957 48.9394 112.063 49.2721C112.516 49.4108 112.857 49.5217 113.083 49.605C113.324 49.6742 113.643 49.7921 114.04 49.9585C114.451 50.111 114.763 50.2566 114.976 50.3953C115.203 50.5338 115.458 50.7211 115.741 50.9567C116.025 51.1925 116.238 51.4351 116.379 51.6847C116.535 51.9342 116.663 52.2392 116.762 52.5997C116.875 52.9464 116.932 53.3276 116.932 53.7436C116.932 55.0885 116.429 56.1561 115.422 56.9464C114.43 57.7367 113.133 58.1318 111.531 58.1318Z" fill="white"/>
</g>
<g filter="url(#filter6_d_2001_561)">
<path d="M123.966 47.1508C125.128 47.1508 126.085 47.532 126.836 48.2946C127.602 49.0572 127.985 50.111 127.985 51.4558V57.8407H125.241V51.7886C125.241 51.0954 125.05 50.5685 124.668 50.208C124.284 49.8337 123.774 49.6465 123.136 49.6465C122.428 49.6465 121.861 49.8614 121.435 50.2912C121.01 50.721 120.798 51.3658 120.798 52.2253V57.8407H118.055V43.2825H120.798V48.6066C121.464 47.6361 122.52 47.1508 123.966 47.1508Z" fill="white"/>
</g>
<g filter="url(#filter7_d_2001_561)">
<path d="M138.72 56.5511C137.629 57.6048 136.296 58.1316 134.723 58.1316C133.15 58.1316 131.817 57.6048 130.725 56.5511C129.648 55.4835 129.109 54.1802 129.109 52.6412C129.109 51.1022 129.648 49.8058 130.725 48.7521C131.817 47.6845 133.15 47.1507 134.723 47.1507C136.296 47.1507 137.629 47.6845 138.72 48.7521C139.812 49.8058 140.358 51.1022 140.358 52.6412C140.358 54.1802 139.812 55.4835 138.72 56.5511ZM132.66 54.7001C133.213 55.2408 133.901 55.5112 134.723 55.5112C135.545 55.5112 136.233 55.2408 136.786 54.7001C137.338 54.1594 137.615 53.4731 137.615 52.6412C137.615 51.8093 137.338 51.123 136.786 50.5823C136.233 50.0415 135.545 49.7712 134.723 49.7712C133.901 49.7712 133.213 50.0415 132.66 50.5823C132.122 51.123 131.853 51.8093 131.853 52.6412C131.853 53.4731 132.122 54.1594 132.66 54.7001Z" fill="white"/>
</g>
<g filter="url(#filter8_d_2001_561)">
<path d="M147.809 47.1507C149.241 47.1507 150.46 47.6845 151.467 48.7521C152.487 49.8058 152.998 51.1022 152.998 52.6412C152.998 54.1802 152.487 55.4835 151.467 56.551C150.46 57.6048 149.241 58.1316 147.809 58.1316C146.321 58.1316 145.173 57.6256 144.364 56.6135V62H141.621V47.4419H144.364V48.6689C145.173 47.6567 146.321 47.1507 147.809 47.1507ZM145.194 54.7625C145.746 55.3033 146.448 55.5736 147.299 55.5736C148.149 55.5736 148.851 55.3033 149.404 54.7625C149.971 54.208 150.254 53.5008 150.254 52.6412C150.254 51.7815 149.971 51.0814 149.404 50.5406C148.851 49.9861 148.149 49.7088 147.299 49.7088C146.448 49.7088 145.746 49.9861 145.194 50.5406C144.641 51.0814 144.364 51.7815 144.364 52.6412C144.364 53.5008 144.641 54.208 145.194 54.7625Z" fill="white"/>
</g>
<defs>
<filter id="filter0_d_2001_561" x="0" y="0" width="100.862" height="100.529" filterUnits="userSpaceOnUse" color-interpolation-filters="sRGB">
<feFlood flood-opacity="0" result="BackgroundImageFix"/>
<feColorMatrix in="SourceAlpha" type="matrix" values="0 0 0 0 0 0 0 0 0 0 0 0 0 0 0 0 0 0 127 0" result="hardAlpha"/>
<feOffset/>
<feGaussianBlur stdDeviation="20"/>
<feComposite in2="hardAlpha" operator="out"/>
<feColorMatrix type="matrix" values="0 0 0 0 1 0 0 0 0 1 0 0 0 0 1 0 0 0 0.1 0"/>
<feBlend mode="normal" in2="BackgroundImageFix" result="effect1_dropShadow_2001_561"/>
<feBlend mode="normal" in="SourceGraphic" in2="effect1_dropShadow_2001_561" result="shape"/>
</filter>
<filter id="filter1_d_2001_561" x="26.0781" y="3.28253" width="90.9509" height="94.5581" filterUnits="userSpaceOnUse" color-interpolation-filters="sRGB">
<feFlood flood-opacity="0" result="BackgroundImageFix"/>
<feColorMatrix in="SourceAlpha" type="matrix" values="0 0 0 0 0 0 0 0 0 0 0 0 0 0 0 0 0 0 127 0" result="hardAlpha"/>
<feOffset/>
<feGaussianBlur stdDeviation="20"/>
<feComposite in2="hardAlpha" operator="out"/>
<feColorMatrix type="matrix" values="0 0 0 0 1 0 0 0 0 1 0 0 0 0 1 0 0 0 0.1 0"/>
<feBlend mode="normal" in2="BackgroundImageFix" result="effect1_dropShadow_2001_561"/>
<feBlend mode="normal" in="SourceGraphic" in2="effect1_dropShadow_2001_561" result="shape"/>
</filter>
<filter id="filter2_d_2001_561" x="36.5234" y="7.23407" width="85.9751" height="90.6066" filterUnits="userSpaceOnUse" color-interpolation-filters="sRGB">
<feFlood flood-opacity="0" result="BackgroundImageFix"/>
<feColorMatrix in="SourceAlpha" type="matrix" values="0 0 0 0 0 0 0 0 0 0 0 0 0 0 0 0 0 0 127 0" result="hardAlpha"/>
<feOffset/>
<feGaussianBlur stdDeviation="20"/>
<feComposite in2="hardAlpha" operator="out"/>
<feColorMatrix type="matrix" values="0 0 0 0 1 0 0 0 0 1 0 0 0 0 1 0 0 0 0.1 0"/>
<feBlend mode="normal" in2="BackgroundImageFix" result="effect1_dropShadow_2001_561"/>
<feBlend mode="normal" in="SourceGraphic" in2="effect1_dropShadow_2001_561" result="shape"/>
</filter>
<filter id="filter3_d_2001_561" x="43.2695" y="7.44183" width="89.9302" height="90.6898" filterUnits="userSpaceOnUse" color-interpolation-filters="sRGB">
<feFlood flood-opacity="0" result="BackgroundImageFix"/>
<feColorMatrix in="SourceAlpha" type="matrix" values="0 0 0 0 0 0 0 0 0 0 0 0 0 0 0 0 0 0 127 0" result="hardAlpha"/>
<feOffset/>
<feGaussianBlur stdDeviation="20"/>
<feComposite in2="hardAlpha" operator="out"/>
<feColorMatrix type="matrix" values="0 0 0 0 1 0 0 0 0 1 0 0 0 0 1 0 0 0 0.1 0"/>
<feBlend mode="normal" in2="BackgroundImageFix" result="effect1_dropShadow_2001_561"/>
<feBlend mode="normal" in="SourceGraphic" in2="effect1_dropShadow_2001_561" result="shape"/>
</filter>
<filter id="filter4_d_2001_561" x="54.4961" y="7.1507" width="90.9934" height="90.981" filterUnits="userSpaceOnUse" color-interpolation-filters="sRGB">
<feFlood flood-opacity="0" result="BackgroundImageFix"/>
<feColorMatrix in="SourceAlpha" type="matrix" values="0 0 0 0 0 0 0 0 0 0 0 0 0 0 0 0 0 0 127 0" result="hardAlpha"/>
<feOffset/>
<feGaussianBlur stdDeviation="20"/>
<feComposite in2="hardAlpha" operator="out"/>
<feColorMatrix type="matrix" values="0 0 0 0 1 0 0 0 0 1 0 0 0 0 1 0 0 0 0.1 0"/>
<feBlend mode="normal" in2="BackgroundImageFix" result="effect1_dropShadow_2001_561"/>
<feBlend mode="normal" in="SourceGraphic" in2="effect1_dropShadow_2001_561" result="shape"/>
</filter>
<filter id="filter5_d_2001_561" x="65.6836" y="2.99139" width="91.2485" height="95.1404" filterUnits="userSpaceOnUse" color-interpolation-filters="sRGB">
<feFlood flood-opacity="0" result="BackgroundImageFix"/>
<feColorMatrix in="SourceAlpha" type="matrix" values="0 0 0 0 0 0 0 0 0 0 0 0 0 0 0 0 0 0 127 0" result="hardAlpha"/>
<feOffset/>
<feGaussianBlur stdDeviation="20"/>
<feComposite in2="hardAlpha" operator="out"/>
<feColorMatrix type="matrix" values="0 0 0 0 1 0 0 0 0 1 0 0 0 0 1 0 0 0 0.1 0"/>
<feBlend mode="normal" in2="BackgroundImageFix" result="effect1_dropShadow_2001_561"/>
<feBlend mode="normal" in="SourceGraphic" in2="effect1_dropShadow_2001_561" result="shape"/>
</filter>
<filter id="filter6_d_2001_561" x="78.0547" y="3.28253" width="89.9302" height="94.5581" filterUnits="userSpaceOnUse" color-interpolation-filters="sRGB">
<feFlood flood-opacity="0" result="BackgroundImageFix"/>
<feColorMatrix in="SourceAlpha" type="matrix" values="0 0 0 0 0 0 0 0 0 0 0 0 0 0 0 0 0 0 127 0" result="hardAlpha"/>
<feOffset/>
<feGaussianBlur stdDeviation="20"/>
<feComposite in2="hardAlpha" operator="out"/>
<feColorMatrix type="matrix" values="0 0 0 0 1 0 0 0 0 1 0 0 0 0 1 0 0 0 0.1 0"/>
<feBlend mode="normal" in2="BackgroundImageFix" result="effect1_dropShadow_2001_561"/>
<feBlend mode="normal" in="SourceGraphic" in2="effect1_dropShadow_2001_561" result="shape"/>
</filter>
<filter id="filter7_d_2001_561" x="89.1094" y="7.1507" width="91.2488" height="90.981" filterUnits="userSpaceOnUse" color-interpolation-filters="sRGB">
<feFlood flood-opacity="0" result="BackgroundImageFix"/>
<feColorMatrix in="SourceAlpha" type="matrix" values="0 0 0 0 0 0 0 0 0 0 0 0 0 0 0 0 0 0 127 0" result="hardAlpha"/>
<feOffset/>
<feGaussianBlur stdDeviation="20"/>
<feComposite in2="hardAlpha" operator="out"/>
<feColorMatrix type="matrix" values="0 0 0 0 1 0 0 0 0 1 0 0 0 0 1 0 0 0 0.1 0"/>
<feBlend mode="normal" in2="BackgroundImageFix" result="effect1_dropShadow_2001_561"/>
<feBlend mode="normal" in="SourceGraphic" in2="effect1_dropShadow_2001_561" result="shape"/>
</filter>
<filter id="filter8_d_2001_561" x="101.621" y="7.1507" width="91.3765" height="94.8493" filterUnits="userSpaceOnUse" color-interpolation-filters="sRGB">
<feFlood flood-opacity="0" result="BackgroundImageFix"/>
<feColorMatrix in="SourceAlpha" type="matrix" values="0 0 0 0 0 0 0 0 0 0 0 0 0 0 0 0 0 0 127 0" result="hardAlpha"/>
<feOffset/>
<feGaussianBlur stdDeviation="20"/>
<feComposite in2="hardAlpha" operator="out"/>
<feColorMatrix type="matrix" values="0 0 0 0 1 0 0 0 0 1 0 0 0 0 1 0 0 0 0.1 0"/>
<feBlend mode="normal" in2="BackgroundImageFix" result="effect1_dropShadow_2001_561"/>
<feBlend mode="normal" in="SourceGraphic" in2="effect1_dropShadow_2001_561" result="shape"/>
</filter>
<linearGradient id="paint0_linear_2001_561" x1="40" y1="60.5295" x2="62.8683" y2="41.6344" gradientUnits="userSpaceOnUse">
<stop stop-color="#12D1AF"/>
<stop offset="1" stop-color="#1BDAD9"/>
</linearGradient>
</defs>
</svg>
